<svg data-v-fde0c5aa="" xmlns="http://www.w3.org/2000/svg" viewBox="0 0 300 300" class="iconAbove"><!----><defs data-v-fde0c5aa=""><!----></defs><rect data-v-fde0c5aa="" fill="transparent" x="0" y="0" width="300px" height="300px" class="logo-background-square"></rect><defs data-v-fde0c5aa=""><!----></defs><g data-v-fde0c5aa="" id="b7385bbe-40ad-409b-8e97-d6cea3ed844d" fill="#000000" transform="matrix(4.535938614519515,0,0,4.535938614519515,20,178.0509426676354)"><path d="M3.91 4.61L3.91 5.59L3.91 9.39L3.91 9.39Q3.91 9.81 3.64 10.12L3.64 10.12L3.64 10.12Q3.37 10.43 2.97 10.50L2.97 10.50L0.94 10.50L0.94 10.50Q0.53 10.43 0.27 10.12L0.27 10.12L0.27 10.12Q0 9.81 0 9.39L0 9.39L0 1.81L0 1.81Q0 1.39 0.27 1.08L0.27 1.08L0.27 1.08Q0.53 0.77 0.94 0.70L0.94 0.70L2.97 0.70L2.97 0.70Q3.37 0.77 3.64 1.08L3.64 1.08L3.64 1.08Q3.91 1.39 3.91 1.81L3.91 1.81L3.91 2.83L2.93 2.83L2.93 1.81L2.93 1.81Q2.93 1.67 2.79 1.67L2.79 1.67L1.12 1.67L1.12 1.67Q0.98 1.67 0.98 1.81L0.98 1.81L0.98 9.39L0.98 9.39Q0.98 9.53 1.12 9.53L1.12 9.53L2.79 9.53L2.79 9.53Q2.93 9.53 2.93 9.39L2.93 9.39L2.93 5.59L1.76 5.59L1.76 4.61L3.91 4.61ZM8.16 10.50L6.92 2.67L6.20 7.20L6.92 7.20L6.92 8.18L6.05 8.18L5.67 10.50L4.68 10.50L5.05 8.18L4.68 8.18L4.68 7.20L5.21 7.20L6.24 0.70L7.59 0.70L9.16 10.50L8.16 10.50ZM13.69 0.70L15.18 0.70L15.18 10.50L14.20 10.50L14.20 3.53L13.10 9.79L11.77 9.79L10.68 3.53L10.68 10.50L9.70 10.50L9.70 0.70L11.20 0.70L12.45 7.95L13.69 0.70ZM19.61 1.68L17.07 1.68L17.07 4.62L19.11 4.62L19.11 5.60L17.07 5.60L17.07 9.52L19.61 9.52L19.61 10.50L16.09 10.50L16.09 4.62L17.07 4.62L16.09 1.68L16.09 0.70L19.61 0.70L19.61 1.68ZM21.50 0.70L23.34 0.70L23.34 0.70Q23.80 0.70 24.13 1.03L24.13 1.03L24.13 1.03Q24.46 1.36 24.46 1.82L24.46 1.82L24.46 4.48L24.46 4.48Q24.46 4.94 24.13 5.27L24.13 5.27L24.13 5.27Q23.80 5.60 23.34 5.60L23.34 5.60L21.50 5.60L21.50 10.50L20.52 10.50L20.52 0.70L21.49 0.70L21.50 0.70ZM23.48 4.48L23.48 1.82L23.48 1.82Q23.48 1.68 23.34 1.68L23.34 1.68L21.50 1.68L21.50 4.62L23.34 4.62L23.34 4.62Q23.48 4.62 23.48 4.48L23.48 4.48ZM25.37 10.50L25.37 4.62L26.35 4.62L26.35 10.50L25.37 10.50ZM25.37 0.70L28.20 0.70L28.20 0.70Q28.64 0.70 28.97 1.03L28.97 1.03L28.97 1.03Q29.30 1.36 29.30 1.82L29.30 1.82L29.30 4.48L29.30 4.48Q29.30 4.94 28.97 5.27L28.97 5.27L28.97 5.27Q28.64 5.60 28.20 5.60L28.20 5.60L27.85 5.60L29.30 10.50L28.25 10.50L26.56 4.62L28.20 4.62L28.20 4.62Q28.32 4.62 28.32 4.48L28.32 4.48L28.32 1.82L28.32 1.82Q28.32 1.68 28.20 1.68L28.20 1.68L26.35 1.68L26.35 4.62L25.37 1.68L25.37 0.70ZM31.15 0.70L33.21 0.70L33.21 0.70Q33.61 0.77 33.88 1.08L33.88 1.08L33.88 1.08Q34.15 1.39 34.15 1.81L34.15 1.81L34.15 9.39L34.15 9.39Q34.15 9.81 33.88 10.12L33.88 10.12L33.88 10.12Q33.61 10.43 33.21 10.50L33.21 10.50L31.15 10.50L31.15 10.50Q30.74 10.43 30.48 10.12L30.48 10.12L30.48 10.12Q30.21 9.81 30.21 9.39L30.21 9.39L30.21 1.81L30.21 1.81Q30.21 1.39 30.48 1.08L30.48 1.08L30.48 1.08Q30.74 0.77 31.15 0.70L31.15 0.70ZM33.17 9.39L33.17 1.81L33.17 1.81Q33.17 1.67 33.04 1.67L33.04 1.67L31.33 1.67L31.33 1.67Q31.19 1.67 31.19 1.81L31.19 1.81L31.19 9.39L31.19 9.39Q31.19 9.53 31.33 9.53L31.33 9.53L33.04 9.53L33.04 9.53Q33.17 9.53 33.17 9.39L33.17 9.39ZM41.13 2.86L40.15 2.86L40.15 1.81L40.15 1.81Q40.15 1.67 40.01 1.67L40.01 1.67L38.49 1.67L38.49 1.67Q38.35 1.67 38.35 1.81L38.35 1.81L38.35 4.47L38.35 4.47Q38.35 4.56 38.43 4.59L38.43 4.59L40.01 4.59L40.01 4.59Q40.49 4.59 40.81 4.92L40.81 4.92L40.81 4.92Q41.13 5.25 41.13 5.71L41.13 5.71L41.13 9.39L41.13 9.39Q41.13 9.81 40.87 10.12L40.87 10.12L40.87 10.12Q40.60 10.43 40.19 10.50L40.19 10.50L38.30 10.50L38.30 10.50Q37.90 10.43 37.63 10.12L37.63 10.12L37.63 10.12Q37.37 9.81 37.37 9.39L37.37 9.39L37.37 8.34L38.35 8.34L38.35 9.39L38.35 9.39Q38.35 9.53 38.49 9.53L38.49 9.53L40.01 9.53L40.01 9.53Q40.15 9.53 40.15 9.39L40.15 9.39L40.15 5.71L40.15 5.71Q40.15 5.61 40.07 5.59L40.07 5.59L38.49 5.59L38.49 5.59Q38.02 5.59 37.70 5.26L37.70 5.26L37.70 5.26Q37.37 4.93 37.37 4.47L37.37 4.47L37.37 1.81L37.37 1.81Q37.37 1.39 37.63 1.08L37.63 1.08L37.63 1.08Q37.90 0.77 38.30 0.70L38.30 0.70L40.19 0.70L40.19 0.70Q40.60 0.77 40.87 1.08L40.87 1.08L40.87 1.08Q41.13 1.39 41.13 1.81L41.13 1.81L41.13 2.86ZM45.77 0.70L45.77 1.68L44.39 1.68L44.39 10.50L43.41 10.50L43.41 1.68L42.04 1.68L42.04 0.70L45.77 0.70ZM47.66 0.70L47.66 10.50L46.68 10.50L46.68 0.70L47.66 0.70ZM51.49 8.34L52.47 8.34L52.47 9.39L52.47 9.39Q52.47 9.81 52.21 10.12L52.21 10.12L52.21 10.12Q51.95 10.43 51.55 10.50L51.55 10.50L49.50 10.50L49.50 10.50Q49.10 10.43 48.83 10.12L48.83 10.12L48.83 10.12Q48.57 9.81 48.57 9.39L48.57 9.39L48.57 1.81L48.57 1.81Q48.57 1.39 48.83 1.08L48.83 1.08L48.83 1.08Q49.10 0.77 49.50 0.70L49.50 0.70L51.55 0.70L51.55 0.70Q51.95 0.77 52.21 1.08L52.21 1.08L52.21 1.08Q52.47 1.39 52.47 1.81L52.47 1.81L52.47 2.86L51.49 2.86L51.49 1.81L51.49 1.81Q51.49 1.67 51.37 1.67L51.37 1.67L49.69 1.67L49.69 1.67Q49.55 1.67 49.55 1.81L49.55 1.81L49.55 9.39L49.55 9.39Q49.55 9.53 49.69 9.53L49.69 9.53L51.37 9.53L51.37 9.53Q51.49 9.53 51.49 9.39L51.49 9.39L51.49 8.34ZM57.32 0.70L55.51 4.44L57.32 10.50L56.27 10.50L54.89 5.73L54.36 6.82L54.36 10.50L53.38 10.50L53.38 4.62L53.38 4.61L54.36 4.61L53.38 1.68L53.38 0.70L54.35 0.70L54.36 0.70L54.36 1.68L54.36 4.61L54.38 4.61L56.24 0.70L57.32 0.70Z"></path></g><defs data-v-fde0c5aa=""><linearGradient data-v-fde0c5aa="" gradientTransform="rotate(25)" id="dfa62a32-73c4-4c20-b1e2-70a918e539a2" x1="0%" y1="0%" x2="100%" y2="0%"><stop data-v-fde0c5aa="" offset="0%" stop-color="#1E0B36" stop-opacity="1"></stop><stop data-v-fde0c5aa="" offset="100%" stop-color="#CA3782" stop-opacity="1"></stop></linearGradient></defs><g data-v-fde0c5aa="" id="dd01229a-4977-4ed1-932e-d8e217e58a1e" stroke="none" fill="url(#dfa62a32-73c4-4c20-b1e2-70a918e539a2)" transform="matrix(1.0749163944611149,0,0,1.0749163944611149,81.20572236054579,49.97969806315096)"><path d="M126.555 58.809c-4.734-22.652-19.693-38.699-33.408-35.832-4.184.875-7.758 3.422-10.584 7.16H45.438c-2.828-3.738-6.407-6.285-10.588-7.16C21.133 20.11 6.18 36.157 1.445 58.809c-4.735 22.658 2.546 43.349 16.266 46.214 10.961 2.289 22.711-7.508 29.406-23.098h33.764c6.691 15.59 18.447 25.387 29.408 23.098 13.717-2.865 21-23.556 16.266-46.214zM28.426 76.422c-8.985 0-16.266-7.281-16.266-16.265 0-8.984 7.28-16.268 16.266-16.268 8.983 0 16.268 7.283 16.268 16.268-.001 8.984-7.285 16.265-16.268 16.265zm57.972-10.996H75.859V54.887h10.539v10.539zm14.206 12.375h-10.54V67.258h10.539v10.543zm0-26.351h-10.54V40.911h10.539V51.45zm14.209 13.976h-10.541V54.887h10.541v10.539z"></path></g><!----></svg>